<?xml version="1.0" encoding="UTF-8" standalone="no"?>
<!-- Created with Inkscape (http://www.inkscape.org/) -->

<svg
   xmlns:dc="http://purl.org/dc/elements/1.1/"
   xmlns:cc="http://creativecommons.org/ns#"
   xmlns:rdf="http://www.w3.org/1999/02/22-rdf-syntax-ns#"
   xmlns:svg="http://www.w3.org/2000/svg"
   xmlns="http://www.w3.org/2000/svg"
   xmlns:xlink="http://www.w3.org/1999/xlink"
   xmlns:sodipodi="http://sodipodi.sourceforge.net/DTD/sodipodi-0.dtd"
   xmlns:inkscape="http://www.inkscape.org/namespaces/inkscape"
   width="1024"
   height="1024"
   id="svg2"
   version="1.1"
   inkscape:version="0.48.1 "
   sodipodi:docname="launcher_zap_blue.svg"
   inkscape:export-filename="C:\Users\wouter\Documents\Remote\Launcher\launcher_zap_blue.png"
   inkscape:export-xdpi="45"
   inkscape:export-ydpi="45">
  <defs
     id="defs4">
    <linearGradient
       id="linearGradient4110">
      <stop
         style="stop-color:#47f6ff;stop-opacity:1;"
         offset="0"
         id="stop4112" />
      <stop
         style="stop-color:#787878;stop-opacity:1;"
         offset="1"
         id="stop4114" />
    </linearGradient>
    <inkscape:path-effect
       effect="spiro"
       id="path-effect3921"
       is_visible="true" />
    <linearGradient
       inkscape:collect="always"
       xlink:href="#linearGradient4110"
       id="linearGradient4116"
       x1="566.57098"
       y1="137.30992"
       x2="566.57098"
       y2="667.6441"
       gradientUnits="userSpaceOnUse"
       gradientTransform="matrix(0.93140295,0,0,0.93140295,45.649748,19.269113)" />
    <linearGradient
       inkscape:collect="always"
       xlink:href="#linearGradient4110"
       id="linearGradient3007"
       gradientUnits="userSpaceOnUse"
       x1="566.57098"
       y1="137.30992"
       x2="566.57098"
       y2="667.6441"
       gradientTransform="matrix(0.93140295,0,0,0.93140295,45.649748,19.269113)" />
    <linearGradient
       inkscape:collect="always"
       xlink:href="#linearGradient4110"
       id="linearGradient3009"
       gradientUnits="userSpaceOnUse"
       x1="566.57098"
       y1="137.30992"
       x2="566.57098"
       y2="667.6441"
       gradientTransform="matrix(0.93140295,0,0,0.93140295,45.649748,19.269113)" />
    <linearGradient
       inkscape:collect="always"
       xlink:href="#linearGradient4110"
       id="linearGradient3011"
       gradientUnits="userSpaceOnUse"
       x1="566.57098"
       y1="137.30992"
       x2="566.57098"
       y2="667.6441"
       gradientTransform="matrix(0.93140295,0,0,0.93140295,45.649748,19.269113)" />
    <linearGradient
       inkscape:collect="always"
       xlink:href="#linearGradient4110"
       id="linearGradient3013"
       gradientUnits="userSpaceOnUse"
       x1="566.57098"
       y1="137.30992"
       x2="566.57098"
       y2="667.6441"
       gradientTransform="matrix(0.93140295,0,0,0.93140295,45.649748,19.269113)" />
  </defs>
  <sodipodi:namedview
     id="base"
     pagecolor="#ffffff"
     bordercolor="#666666"
     borderopacity="1.0"
     inkscape:pageopacity="0.0"
     inkscape:pageshadow="2"
     inkscape:zoom="0.5"
     inkscape:cx="149"
     inkscape:cy="566.66555"
     inkscape:document-units="px"
     inkscape:current-layer="g4092"
     showgrid="false"
     showguides="true"
     inkscape:guide-bbox="true"
     inkscape:window-width="1827"
     inkscape:window-height="1053"
     inkscape:window-x="84"
     inkscape:window-y="-9"
     inkscape:window-maximized="1">
    <sodipodi:guide
       orientation="1,0"
       position="512,512"
       id="guide4100" />
    <sodipodi:guide
       orientation="0,1"
       position="512,512"
       id="guide4102" />
  </sodipodi:namedview>
  <metadata
     id="metadata7">
    <rdf:RDF>
      <cc:Work
         rdf:about="">
        <dc:format>image/svg+xml</dc:format>
        <dc:type
           rdf:resource="http://purl.org/dc/dcmitype/StillImage" />
        <dc:title></dc:title>
      </cc:Work>
    </rdf:RDF>
  </metadata>
  <g
     inkscape:label="Layer 1"
     inkscape:groupmode="layer"
     id="layer1"
     transform="translate(0,-28.362183)"
     style="display:inline" />
  <g
     inkscape:groupmode="layer"
     id="layer2"
     inkscape:label="InnerCircles"
     style="display:inline" />
  <g
     inkscape:groupmode="layer"
     id="layer4"
     inkscape:label="MiddleCircles"
     style="display:inline" />
  <g
     inkscape:groupmode="layer"
     id="layer3"
     inkscape:label="OuterCircles"
     style="display:inline">
    <g
       id="g4092"
       transform="matrix(1.0190761,0,0,1.0190761,-52.072458,34.435421)">
      <g
         id="g4104"
         transform="matrix(1.1720795,0,0,1.1720795,-118.50635,-66.19994)"
         style="fill:url(#linearGradient4116);fill-opacity:1">
        <path
           style="font-size:40px;font-style:normal;font-weight:normal;line-height:125%;letter-spacing:0px;word-spacing:0px;fill:url(#linearGradient3007);fill-opacity:1;stroke:none;display:inline;font-family:Sans"
           d="m 169.875,380.53125 0,48.4375 133.375,0 -150.375,185.75 0,52.125 232.59375,0 0.0312,0 0,-0.0312 87.4375,-107.96875 68.25,0 0,108 57.8125,0 0,-108 37.6875,0 c 26.17172,1.1e-4 46.1665,-1.35927 59.96875,-4.09375 10.15606,-2.21343 20.13782,-6.72644 29.96875,-13.5625 9.8305,-6.8358 17.93206,-16.27069 24.3125,-28.25 6.37996,-11.979 9.56225,-26.73419 9.5625,-44.3125 -2.5e-4,-22.78624 -5.52628,-41.39299 -16.59375,-55.78125 -11.06793,-14.38775 -24.81271,-23.7341 -41.21875,-28.03125 -10.67726,-2.8643 -33.59391,-4.28096 -68.75,-4.28125 l -16.59375,0 -76.1875,0 -192.7812,238.0937 -125.78125,0 156.84375,-193.1875 0,-44.90625 -209.5625,0 z m 429.125,48.4375 27.90625,0 c 20.8332,2.4e-4 34.72381,0.63565 41.625,1.9375 9.37483,1.69294 17.09878,5.94815 23.21875,12.71875 6.11961,6.77105 9.18731,15.36479 9.1875,25.78125 -1.9e-4,8.46373 -2.16946,15.86997 -6.53125,22.25 -4.36216,6.38038 -10.38038,11.06787 -18.0625,14.0625 -7.68245,2.99495 -22.93243,4.50016 -45.71875,4.5 l -31.625,0 0,-81.25 z m -57.8125,45.59375 0,35.65625 -28.875,0 28.875,-35.65625 z"
           id="text2985"
           inkscape:connector-curvature="0" />
        <path
           inkscape:connector-curvature="0"
           style="fill:url(#linearGradient3009);fill-opacity:1;stroke:none;display:inline"
           d="m 691.09375,295.0625 -7,39.59375 c 56.40798,9.86231 102.20295,54.76882 113.4375,110.75 L 836.625,438.5 C 822.43935,366.33521 763.58444,308.19027 691.09375,295.0625 z"
           id="path3801-5" />
        <path
           style="fill:url(#linearGradient3011);fill-opacity:1;stroke:none;display:inline"
           d="m 705.40625,213.8125 -6.78125,38.46875 c 89.79383,16.07788 162.508,89.20143 177.9375,179.1875 L 915.625,424.5625 C 897.18448,318.60199 811.28438,232.53215 705.40625,213.8125 z"
           id="path3801-5-9-2"
           inkscape:connector-curvature="0" />
        <path
           style="fill:url(#linearGradient3013);fill-opacity:1;stroke:none;display:inline"
           d="m 719.09375,136.3125 -6.8125,38.5 C 833.78502,197.27633 932.34426,296.11672 954.375,417.75 l 39.0625,-6.90625 C 968.39559,273.24714 856.66305,161.4461 719.09375,136.3125 z"
           id="path3801-5-9-2-3-5"
           inkscape:connector-curvature="0" />
      </g>
    </g>
  </g>
  <g
     inkscape:groupmode="layer"
     id="layer5"
     inkscape:label="CircleCut"
     style="display:none" />
</svg>
